<svg xmlns="http://www.w3.org/2000/svg" version="1.1" xmlns:xlink="http://www.w3.org/1999/xlink" xmlns:svgjs="http://svgjs.dev/svgjs" width="1440" height="560" preserveAspectRatio="none" viewBox="0 0 1440 560"><g mask="url(&quot;#SvgjsMask1043&quot;)" fill="none"><path d="M134.02 158.85L198.97 196.35L198.97 271.35L134.02 308.85L69.06 271.35L69.06 196.35zM198.97 496.35L263.93 533.85L263.93 608.85L198.97 646.35L134.02 608.85L134.02 533.85zM588.69 271.35L653.65 308.85L653.65 383.85L588.69 421.35L523.74 383.85L523.74 308.85zM523.74 383.85L588.69 421.35L588.69 496.35L523.74 533.85L458.79 496.35L458.79 421.35zM588.69 496.35L653.65 533.85L653.65 608.85L588.69 646.35L523.74 608.85L523.74 533.85zM653.65 -66.15L718.6 -28.65L718.6 46.35L653.65 83.85L588.69 46.35L588.69 -28.65zM653.65 158.85L718.6 196.35L718.6 271.35L653.65 308.85L588.69 271.35L588.69 196.35zM978.42 271.35L1043.37 308.85L1043.37 383.85L978.42 421.35L913.46 383.85L913.46 308.85zM978.42 496.35L1043.37 533.85L1043.37 608.85L978.42 646.35L913.46 608.85L913.46 533.85zM1238.23 496.35L1303.18 533.85L1303.18 608.85L1238.23 646.35L1173.28 608.85L1173.28 533.85zM1303.18 158.85L1368.14 196.35L1368.14 271.35L1303.18 308.85L1238.23 271.35L1238.23 196.35z" stroke="rgba(245, 137, 103, 0.4)" stroke-width="2"></path><path d="M126.52 158.85 a7.5 7.5 0 1 0 15 0 a7.5 7.5 0 1 0 -15 0zM191.47 196.35 a7.5 7.5 0 1 0 15 0 a7.5 7.5 0 1 0 -15 0zM191.47 271.35 a7.5 7.5 0 1 0 15 0 a7.5 7.5 0 1 0 -15 0zM126.52 308.85 a7.5 7.5 0 1 0 15 0 a7.5 7.5 0 1 0 -15 0zM61.56 271.35 a7.5 7.5 0 1 0 15 0 a7.5 7.5 0 1 0 -15 0zM61.56 196.35 a7.5 7.5 0 1 0 15 0 a7.5 7.5 0 1 0 -15 0zM191.47 496.35 a7.5 7.5 0 1 0 15 0 a7.5 7.5 0 1 0 -15 0zM256.43 533.85 a7.5 7.5 0 1 0 15 0 a7.5 7.5 0 1 0 -15 0zM256.43 608.85 a7.5 7.5 0 1 0 15 0 a7.5 7.5 0 1 0 -15 0zM191.47 646.35 a7.5 7.5 0 1 0 15 0 a7.5 7.5 0 1 0 -15 0zM126.52 608.85 a7.5 7.5 0 1 0 15 0 a7.5 7.5 0 1 0 -15 0zM126.52 533.85 a7.5 7.5 0 1 0 15 0 a7.5 7.5 0 1 0 -15 0zM581.19 271.35 a7.5 7.5 0 1 0 15 0 a7.5 7.5 0 1 0 -15 0zM646.15 308.85 a7.5 7.5 0 1 0 15 0 a7.5 7.5 0 1 0 -15 0zM646.15 383.85 a7.5 7.5 0 1 0 15 0 a7.5 7.5 0 1 0 -15 0zM581.19 421.35 a7.5 7.5 0 1 0 15 0 a7.5 7.5 0 1 0 -15 0zM516.24 383.85 a7.5 7.5 0 1 0 15 0 a7.5 7.5 0 1 0 -15 0zM516.24 308.85 a7.5 7.5 0 1 0 15 0 a7.5 7.5 0 1 0 -15 0zM581.19 496.35 a7.5 7.5 0 1 0 15 0 a7.5 7.5 0 1 0 -15 0zM516.24 533.85 a7.5 7.5 0 1 0 15 0 a7.5 7.5 0 1 0 -15 0zM451.29 496.35 a7.5 7.5 0 1 0 15 0 a7.5 7.5 0 1 0 -15 0zM451.29 421.35 a7.5 7.5 0 1 0 15 0 a7.5 7.5 0 1 0 -15 0zM646.15 533.85 a7.5 7.5 0 1 0 15 0 a7.5 7.5 0 1 0 -15 0zM646.15 608.85 a7.5 7.5 0 1 0 15 0 a7.5 7.5 0 1 0 -15 0zM581.19 646.35 a7.5 7.5 0 1 0 15 0 a7.5 7.5 0 1 0 -15 0zM516.24 608.85 a7.5 7.5 0 1 0 15 0 a7.5 7.5 0 1 0 -15 0zM646.15 -66.15 a7.5 7.5 0 1 0 15 0 a7.5 7.5 0 1 0 -15 0zM711.1 -28.65 a7.5 7.5 0 1 0 15 0 a7.5 7.5 0 1 0 -15 0zM711.1 46.35 a7.5 7.5 0 1 0 15 0 a7.5 7.5 0 1 0 -15 0zM646.15 83.85 a7.5 7.5 0 1 0 15 0 a7.5 7.5 0 1 0 -15 0zM581.19 46.35 a7.5 7.5 0 1 0 15 0 a7.5 7.5 0 1 0 -15 0zM581.19 -28.65 a7.5 7.5 0 1 0 15 0 a7.5 7.5 0 1 0 -15 0zM646.15 158.85 a7.5 7.5 0 1 0 15 0 a7.5 7.5 0 1 0 -15 0zM711.1 196.35 a7.5 7.5 0 1 0 15 0 a7.5 7.5 0 1 0 -15 0zM711.1 271.35 a7.5 7.5 0 1 0 15 0 a7.5 7.5 0 1 0 -15 0zM581.19 196.35 a7.5 7.5 0 1 0 15 0 a7.5 7.5 0 1 0 -15 0zM970.92 271.35 a7.5 7.5 0 1 0 15 0 a7.5 7.5 0 1 0 -15 0zM1035.87 308.85 a7.5 7.5 0 1 0 15 0 a7.5 7.5 0 1 0 -15 0zM1035.87 383.85 a7.5 7.5 0 1 0 15 0 a7.5 7.5 0 1 0 -15 0zM970.92 421.35 a7.5 7.5 0 1 0 15 0 a7.5 7.5 0 1 0 -15 0zM905.96 383.85 a7.5 7.5 0 1 0 15 0 a7.5 7.5 0 1 0 -15 0zM905.96 308.85 a7.5 7.5 0 1 0 15 0 a7.5 7.5 0 1 0 -15 0zM970.92 496.35 a7.5 7.5 0 1 0 15 0 a7.5 7.5 0 1 0 -15 0zM1035.87 533.85 a7.5 7.5 0 1 0 15 0 a7.5 7.5 0 1 0 -15 0zM1035.87 608.85 a7.5 7.5 0 1 0 15 0 a7.5 7.5 0 1 0 -15 0zM970.92 646.35 a7.5 7.5 0 1 0 15 0 a7.5 7.5 0 1 0 -15 0zM905.96 608.85 a7.5 7.5 0 1 0 15 0 a7.5 7.5 0 1 0 -15 0zM905.96 533.85 a7.5 7.5 0 1 0 15 0 a7.5 7.5 0 1 0 -15 0zM1230.73 496.35 a7.5 7.5 0 1 0 15 0 a7.5 7.5 0 1 0 -15 0zM1295.68 533.85 a7.5 7.5 0 1 0 15 0 a7.5 7.5 0 1 0 -15 0zM1295.68 608.85 a7.5 7.5 0 1 0 15 0 a7.5 7.5 0 1 0 -15 0zM1230.73 646.35 a7.5 7.5 0 1 0 15 0 a7.5 7.5 0 1 0 -15 0zM1165.78 608.85 a7.5 7.5 0 1 0 15 0 a7.5 7.5 0 1 0 -15 0zM1165.78 533.85 a7.5 7.5 0 1 0 15 0 a7.5 7.5 0 1 0 -15 0zM1295.68 158.85 a7.5 7.5 0 1 0 15 0 a7.5 7.5 0 1 0 -15 0zM1360.64 196.35 a7.5 7.5 0 1 0 15 0 a7.5 7.5 0 1 0 -15 0zM1360.64 271.35 a7.5 7.5 0 1 0 15 0 a7.5 7.5 0 1 0 -15 0zM1295.68 308.85 a7.5 7.5 0 1 0 15 0 a7.5 7.5 0 1 0 -15 0zM1230.73 271.35 a7.5 7.5 0 1 0 15 0 a7.5 7.5 0 1 0 -15 0zM1230.73 196.35 a7.5 7.5 0 1 0 15 0 a7.5 7.5 0 1 0 -15 0z" fill="rgba(245, 137, 103, 0.4)"></path><path d="M23.59 -18.01L66.89 6.99L66.89 56.99L23.59 81.99L-19.71 56.99L-19.71 6.99zM66.89 56.99L110.2 81.99L110.2 131.99L66.89 156.99L23.59 131.99L23.59 81.99zM23.59 131.99L66.89 156.99L66.89 206.99L23.59 231.99L-19.71 206.99L-19.71 156.99zM66.89 206.99L110.2 231.99L110.2 281.99L66.89 306.99L23.59 281.99L23.59 231.99zM66.89 506.99L110.2 531.99L110.2 581.99L66.89 606.99L23.59 581.99L23.59 531.99zM153.5 56.99L196.8 81.99L196.8 131.99L153.5 156.99L110.2 131.99L110.2 81.99zM153.5 206.99L196.8 231.99L196.8 281.99L153.5 306.99L110.2 281.99L110.2 231.99zM110.2 281.99L153.5 306.99L153.5 356.99L110.2 381.99L66.89 356.99L66.89 306.99zM110.2 431.99L153.5 456.99L153.5 506.99L110.2 531.99L66.89 506.99L66.89 456.99zM196.8 -18.01L240.1 6.99L240.1 56.99L196.8 81.99L153.5 56.99L153.5 6.99zM196.8 131.99L240.1 156.99L240.1 206.99L196.8 231.99L153.5 206.99L153.5 156.99zM196.8 281.99L240.1 306.99L240.1 356.99L196.8 381.99L153.5 356.99L153.5 306.99zM240.1 356.99L283.4 381.99L283.4 431.99L240.1 456.99L196.8 431.99L196.8 381.99zM196.8 431.99L240.1 456.99L240.1 506.99L196.8 531.99L153.5 506.99L153.5 456.99zM240.1 506.99L283.4 531.99L283.4 581.99L240.1 606.99L196.8 581.99L196.8 531.99zM283.4 -18.01L326.71 6.99L326.71 56.99L283.4 81.99L240.1 56.99L240.1 6.99zM326.71 356.99L370.01 381.99L370.01 431.99L326.71 456.99L283.4 431.99L283.4 381.99zM283.4 431.99L326.71 456.99L326.71 506.99L283.4 531.99L240.1 506.99L240.1 456.99zM370.01 131.99L413.31 156.99L413.31 206.99L370.01 231.99L326.71 206.99L326.71 156.99zM413.31 356.99L456.62 381.99L456.62 431.99L413.31 456.99L370.01 431.99L370.01 381.99zM499.92 56.99L543.22 81.99L543.22 131.99L499.92 156.99L456.62 131.99L456.62 81.99zM456.62 131.99L499.92 156.99L499.92 206.99L456.62 231.99L413.31 206.99L413.31 156.99zM456.62 281.99L499.92 306.99L499.92 356.99L456.62 381.99L413.31 356.99L413.31 306.99zM456.62 431.99L499.92 456.99L499.92 506.99L456.62 531.99L413.31 506.99L413.31 456.99zM543.22 431.99L586.52 456.99L586.52 506.99L543.22 531.99L499.92 506.99L499.92 456.99zM586.52 506.99L629.83 531.99L629.83 581.99L586.52 606.99L543.22 581.99L543.22 531.99zM673.13 56.99L716.43 81.99L716.43 131.99L673.13 156.99L629.83 131.99L629.83 81.99zM673.13 206.99L716.43 231.99L716.43 281.99L673.13 306.99L629.83 281.99L629.83 231.99zM716.43 -18.01L759.73 6.99L759.73 56.99L716.43 81.99L673.13 56.99L673.13 6.99zM759.73 56.99L803.04 81.99L803.04 131.99L759.73 156.99L716.43 131.99L716.43 81.99zM759.73 206.99L803.04 231.99L803.04 281.99L759.73 306.99L716.43 281.99L716.43 231.99zM716.43 281.99L759.73 306.99L759.73 356.99L716.43 381.99L673.13 356.99L673.13 306.99zM803.04 131.99L846.34 156.99L846.34 206.99L803.04 231.99L759.73 206.99L759.73 156.99zM803.04 281.99L846.34 306.99L846.34 356.99L803.04 381.99L759.73 356.99L759.73 306.99zM803.04 431.99L846.34 456.99L846.34 506.99L803.04 531.99L759.73 506.99L759.73 456.99zM846.34 506.99L889.64 531.99L889.64 581.99L846.34 606.99L803.04 581.99L803.04 531.99zM932.94 56.99L976.25 81.99L976.25 131.99L932.94 156.99L889.64 131.99L889.64 81.99zM932.94 206.99L976.25 231.99L976.25 281.99L932.94 306.99L889.64 281.99L889.64 231.99zM889.64 281.99L932.94 306.99L932.94 356.99L889.64 381.99L846.34 356.99L846.34 306.99zM932.94 356.99L976.25 381.99L976.25 431.99L932.94 456.99L889.64 431.99L889.64 381.99zM1019.55 56.99L1062.85 81.99L1062.85 131.99L1019.55 156.99L976.25 131.99L976.25 81.99zM1019.55 206.99L1062.85 231.99L1062.85 281.99L1019.55 306.99L976.25 281.99L976.25 231.99zM1019.55 506.99L1062.85 531.99L1062.85 581.99L1019.55 606.99L976.25 581.99L976.25 531.99zM1062.85 -18.01L1106.15 6.99L1106.15 56.99L1062.85 81.99L1019.55 56.99L1019.55 6.99zM1106.15 506.99L1149.45 531.99L1149.45 581.99L1106.15 606.99L1062.85 581.99L1062.85 531.99zM1149.45 -18.01L1192.76 6.99L1192.76 56.99L1149.45 81.99L1106.15 56.99L1106.15 6.99zM1149.45 131.99L1192.76 156.99L1192.76 206.99L1149.45 231.99L1106.15 206.99L1106.15 156.99zM1192.76 356.99L1236.06 381.99L1236.06 431.99L1192.76 456.99L1149.45 431.99L1149.45 381.99zM1322.66 131.99L1365.97 156.99L1365.97 206.99L1322.66 231.99L1279.36 206.99L1279.36 156.99zM1322.66 281.99L1365.97 306.99L1365.97 356.99L1322.66 381.99L1279.36 356.99L1279.36 306.99zM1365.97 356.99L1409.27 381.99L1409.27 431.99L1365.97 456.99L1322.66 431.99L1322.66 381.99zM1322.66 431.99L1365.97 456.99L1365.97 506.99L1322.66 531.99L1279.36 506.99L1279.36 456.99zM1452.57 356.99L1495.88 381.99L1495.88 431.99L1452.57 456.99L1409.27 431.99L1409.27 381.99zM1409.27 431.99L1452.57 456.99L1452.57 506.99L1409.27 531.99L1365.97 506.99L1365.97 456.99z" stroke="rgba(245, 137, 103, 0.17)" stroke-width="2"></path></g><defs><mask id="SvgjsMask1043"><rect width="1440" height="560" fill="#ffffff"></rect></mask></defs></svg>